<svg width="21" height="20" viewBox="0 0 21 20" fill="none" xmlns="http://www.w3.org/2000/svg">
<path d="M6.03857 19.1898C5.74377 20.1339 5.16309 20.172 4.57043 19.7181C3.0572 18.5593 1.56614 17.3672 0.136836 16.1082C-0.0641588 15.9312 -0.0356462 15.1798 0.16946 14.9066C1.46067 13.1869 2.82361 11.5205 4.18204 9.85207C4.54741 9.40332 4.90902 9.27637 5.48775 9.72513C6.91253 10.83 8.42109 11.8267 9.9934 12.9357C11.0045 11.7237 12.0064 10.5246 13.0037 9.32155C13.0528 9.26233 13.0449 9.1575 13.0911 9.09393C14.1784 7.59747 14.4737 7.54804 16.0416 8.62452C17.1586 9.39137 18.274 10.1608 19.3785 10.9453C20.2056 11.5328 20.3381 12.18 19.6236 13.0079C18.4317 14.3887 17.2948 15.8174 16.1487 17.2373C15.1725 18.4466 14.7469 18.5094 13.4759 17.5191C12.269 16.5786 11.0809 15.614 9.87253 14.6505C8.60044 16.1639 7.35522 17.6454 6.03857 19.1898Z" fill="url(#paint0_linear_319_1078)"/>
<path d="M11.9181 7.70285C11.1905 8.61483 10.5298 9.46317 9.78118 10.4245C7.89629 8.97715 6.06907 7.57412 4.11475 6.0735C5.45199 4.37634 6.62628 2.78292 7.91046 1.28363C9.35098 -0.398191 9.39155 -0.35755 11.2221 0.998393C12.1825 1.70974 13.0861 2.54165 14.1404 3.06944C15.1314 3.56559 14.8035 4.13462 14.4297 4.64902C13.674 5.68881 12.8064 6.64724 11.9181 7.70285Z" fill="url(#paint1_linear_319_1078)"/>
<defs>
<linearGradient id="paint0_linear_319_1078" x1="8.5" y1="8.79319" x2="9.06905" y2="20.0494" gradientUnits="userSpaceOnUse">
<stop stop-color="#746EAD"/>
<stop offset="1" stop-color="white" stop-opacity="0.28"/>
</linearGradient>
<linearGradient id="paint1_linear_319_1078" x1="8.63485" y1="0.781832" x2="9.4238" y2="10.4271" gradientUnits="userSpaceOnUse">
<stop stop-color="#746EAD"/>
<stop offset="1" stop-color="white" stop-opacity="0.28"/>
</linearGradient>
</defs>
</svg>
