<svg width="105" height="51" viewBox="0 0 105 51" fill="none" xmlns="http://www.w3.org/2000/svg">
<path d="M91.223 20.3007V6.38004H82.4813L83.5789 4.49976H93.143V18.0756L91.223 20.3007Z" fill="#1C2E5A"/>
<mask id="mask0_307_1741" style="mask-type:luminance" maskUnits="userSpaceOnUse" x="61" y="0" width="27" height="26">
<path d="M68.6328 25.8906C68.4078 25.8906 67.5832 25.3538 66.1879 24.2952C64.7927 23.2366 63.4005 22.0971 62.0473 20.9065C61.7264 20.6816 61.5645 20.4852 61.5645 20.3255L61.8568 19.8899L67.8088 12.6792L68.1949 12.4378C68.4198 12.4378 70.5753 13.9889 74.7767 17.1797L80.2938 10.5012L80.6829 10.2598C80.97 10.2598 83.1847 11.823 87.2646 14.9081L87.6995 15.2942L87.8937 15.6338L87.6013 16.1653L81.7468 23.2321C81.5218 23.553 81.3449 23.715 81.2152 23.715C80.9903 23.715 80.1176 23.1534 78.5522 21.9974C77.0131 20.8578 75.6943 19.7917 74.6342 18.8283L69.1658 25.4101C68.9401 25.7279 68.7617 25.8906 68.6328 25.8906ZM74.4873 13.2115C74.2624 13.2115 73.3912 12.6417 71.897 11.5179C70.4028 10.394 69.1096 9.33394 68.0517 8.36906C67.7294 8.14414 67.5659 7.94847 67.5659 7.78878L73.5636 0.239159L73.955 0C74.2121 0 76.3451 1.51442 80.2938 4.49828L80.7316 4.88589L80.9228 5.22326L80.6342 5.75705L75.0203 12.7294C74.7954 13.0488 74.6162 13.2115 74.4873 13.2115Z" fill="white"/>
</mask>
<g mask="url(#mask0_307_1741)">
<path d="M87.8925 6.2919L73.2378 -3.46862L87.8925 -11.0317V6.2919Z" fill="#EE4D42"/>
</g>
<mask id="mask1_307_1741" style="mask-type:luminance" maskUnits="userSpaceOnUse" x="61" y="0" width="27" height="26">
<path d="M68.6328 25.8906C68.4078 25.8906 67.5832 25.3538 66.1879 24.2952C64.7927 23.2366 63.4005 22.0971 62.0473 20.9065C61.7264 20.6816 61.5645 20.4852 61.5645 20.3255L61.8568 19.8899L67.8088 12.6792L68.1949 12.4378C68.4198 12.4378 70.5753 13.9889 74.7767 17.1797L80.2938 10.5012L80.6829 10.2598C80.97 10.2598 83.1847 11.823 87.2646 14.9081L87.6995 15.2942L87.8937 15.6338L87.6013 16.1653L81.7468 23.2321C81.5218 23.553 81.3449 23.715 81.2152 23.715C80.9903 23.715 80.1176 23.1534 78.5522 21.9974C77.0131 20.8578 75.6943 19.7917 74.6342 18.8283L69.1658 25.4101C68.9401 25.7279 68.7617 25.8906 68.6328 25.8906ZM74.4873 13.2115C74.2624 13.2115 73.3912 12.6417 71.897 11.5179C70.4028 10.394 69.1096 9.33394 68.0517 8.36906C67.7294 8.14414 67.5659 7.94847 67.5659 7.78878L73.5636 0.239159L73.955 0C74.2121 0 76.3451 1.51442 80.2938 4.49828L80.7316 4.88589L80.9228 5.22326L80.6342 5.75705L75.0203 12.7294C74.7954 13.0488 74.6162 13.2115 74.4873 13.2115Z" fill="white"/>
</mask>
<g mask="url(#mask1_307_1741)">
<path d="M73.2378 -3.46851L81.5101 16.3854L87.8917 6.29127L73.2378 -3.46851Z" fill="#1D66A6"/>
</g>
<mask id="mask2_307_1741" style="mask-type:luminance" maskUnits="userSpaceOnUse" x="61" y="0" width="27" height="26">
<path d="M68.6328 25.8906C68.4078 25.8906 67.5832 25.3538 66.1879 24.2952C64.7927 23.2366 63.4005 22.0971 62.0473 20.9065C61.7264 20.6816 61.5645 20.4852 61.5645 20.3255L61.8568 19.8899L67.8088 12.6792L68.1949 12.4378C68.4198 12.4378 70.5753 13.9889 74.7767 17.1797L80.2938 10.5012L80.6829 10.2598C80.97 10.2598 83.1847 11.823 87.2646 14.9081L87.6995 15.2942L87.8937 15.6338L87.6013 16.1653L81.7468 23.2321C81.5218 23.553 81.3449 23.715 81.2152 23.715C80.9903 23.715 80.1176 23.1534 78.5522 21.9974C77.0131 20.8578 75.6943 19.7917 74.6342 18.8283L69.1658 25.4101C68.9401 25.7279 68.7617 25.8906 68.6328 25.8906ZM74.4873 13.2115C74.2624 13.2115 73.3912 12.6417 71.897 11.5179C70.4028 10.394 69.1096 9.33394 68.0517 8.36906C67.7294 8.14414 67.5659 7.94847 67.5659 7.78878L73.5636 0.239159L73.955 0C74.2121 0 76.3451 1.51442 80.2938 4.49828L80.7316 4.88589L80.9228 5.22326L80.6342 5.75705L75.0203 12.7294C74.7954 13.0488 74.6162 13.2115 74.4873 13.2115Z" fill="white"/>
</mask>
<g mask="url(#mask2_307_1741)">
<path d="M87.8918 26.6672L81.5103 16.3857L87.8918 6.2915V26.6672Z" fill="#1C2E5A"/>
</g>
<mask id="mask3_307_1741" style="mask-type:luminance" maskUnits="userSpaceOnUse" x="61" y="0" width="27" height="26">
<path d="M68.6328 25.8906C68.4078 25.8906 67.5832 25.3538 66.1879 24.2952C64.7927 23.2366 63.4005 22.0971 62.0473 20.9065C61.7264 20.6816 61.5645 20.4852 61.5645 20.3255L61.8568 19.8899L67.8088 12.6792L68.1949 12.4378C68.4198 12.4378 70.5753 13.9889 74.7767 17.1797L80.2938 10.5012L80.6829 10.2598C80.97 10.2598 83.1847 11.823 87.2646 14.9081L87.6995 15.2942L87.8937 15.6338L87.6013 16.1653L81.7468 23.2321C81.5218 23.553 81.3449 23.715 81.2152 23.715C80.9903 23.715 80.1176 23.1534 78.5522 21.9974C77.0131 20.8578 75.6943 19.7917 74.6342 18.8283L69.1658 25.4101C68.9401 25.7279 68.7617 25.8906 68.6328 25.8906ZM74.4873 13.2115C74.2624 13.2115 73.3912 12.6417 71.897 11.5179C70.4028 10.394 69.1096 9.33394 68.0517 8.36906C67.7294 8.14414 67.5659 7.94847 67.5659 7.78878L73.5636 0.239159L73.955 0C74.2121 0 76.3451 1.51442 80.2938 4.49828L80.7316 4.88589L80.9228 5.22326L80.6342 5.75705L75.0203 12.7294C74.7954 13.0488 74.6162 13.2115 74.4873 13.2115Z" fill="white"/>
</mask>
<g mask="url(#mask3_307_1741)">
<path d="M61.4206 13.1977L59.9886 -9.96851L73.2391 -3.46924L61.4206 13.1977Z" fill="#1D66A6"/>
</g>
<mask id="mask4_307_1741" style="mask-type:luminance" maskUnits="userSpaceOnUse" x="61" y="0" width="27" height="26">
<path d="M68.6328 25.8906C68.4078 25.8906 67.5832 25.3538 66.1879 24.2952C64.7927 23.2366 63.4005 22.0971 62.0473 20.9065C61.7264 20.6816 61.5645 20.4852 61.5645 20.3255L61.8568 19.8899L67.8088 12.6792L68.1949 12.4378C68.4198 12.4378 70.5753 13.9889 74.7767 17.1797L80.2938 10.5012L80.6829 10.2598C80.97 10.2598 83.1847 11.823 87.2646 14.9081L87.6995 15.2942L87.8937 15.6338L87.6013 16.1653L81.7468 23.2321C81.5218 23.553 81.3449 23.715 81.2152 23.715C80.9903 23.715 80.1176 23.1534 78.5522 21.9974C77.0131 20.8578 75.6943 19.7917 74.6342 18.8283L69.1658 25.4101C68.9401 25.7279 68.7617 25.8906 68.6328 25.8906ZM74.4873 13.2115C74.2624 13.2115 73.3912 12.6417 71.897 11.5179C70.4028 10.394 69.1096 9.33394 68.0517 8.36906C67.7294 8.14414 67.5659 7.94847 67.5659 7.78878L73.5636 0.239159L73.955 0C74.2121 0 76.3451 1.51442 80.2938 4.49828L80.7316 4.88589L80.9228 5.22326L80.6342 5.75705L75.0203 12.7294C74.7954 13.0488 74.6162 13.2115 74.4873 13.2115Z" fill="white"/>
</mask>
<g mask="url(#mask4_307_1741)">
<path d="M81.513 16.3854L61.4207 13.1946L73.2384 -3.46851L81.513 16.3854Z" fill="#26B195"/>
</g>
<mask id="mask5_307_1741" style="mask-type:luminance" maskUnits="userSpaceOnUse" x="61" y="0" width="27" height="26">
<path d="M68.6328 25.8906C68.4078 25.8906 67.5832 25.3538 66.1879 24.2952C64.7927 23.2366 63.4005 22.0971 62.0473 20.9065C61.7264 20.6816 61.5645 20.4852 61.5645 20.3255L61.8568 19.8899L67.8088 12.6792L68.1949 12.4378C68.4198 12.4378 70.5753 13.9889 74.7767 17.1797L80.2938 10.5012L80.6829 10.2598C80.97 10.2598 83.1847 11.823 87.2646 14.9081L87.6995 15.2942L87.8937 15.6338L87.6013 16.1653L81.7468 23.2321C81.5218 23.553 81.3449 23.715 81.2152 23.715C80.9903 23.715 80.1176 23.1534 78.5522 21.9974C77.0131 20.8578 75.6943 19.7917 74.6342 18.8283L69.1658 25.4101C68.9401 25.7279 68.7617 25.8906 68.6328 25.8906ZM74.4873 13.2115C74.2624 13.2115 73.3912 12.6417 71.897 11.5179C70.4028 10.394 69.1096 9.33394 68.0517 8.36906C67.7294 8.14414 67.5659 7.94847 67.5659 7.78878L73.5636 0.239159L73.955 0C74.2121 0 76.3451 1.51442 80.2938 4.49828L80.7316 4.88589L80.9228 5.22326L80.6342 5.75705L75.0203 12.7294C74.7954 13.0488 74.6162 13.2115 74.4873 13.2115Z" fill="white"/>
</mask>
<g mask="url(#mask5_307_1741)">
<path d="M77.4336 37.1266L81.5105 16.3865L87.8921 26.6681L77.4336 37.1266Z" fill="#26B195"/>
</g>
<mask id="mask6_307_1741" style="mask-type:luminance" maskUnits="userSpaceOnUse" x="61" y="0" width="27" height="26">
<path d="M68.6328 25.8906C68.4078 25.8906 67.5832 25.3538 66.1879 24.2952C64.7927 23.2366 63.4005 22.0971 62.0473 20.9065C61.7264 20.6816 61.5645 20.4852 61.5645 20.3255L61.8568 19.8899L67.8088 12.6792L68.1949 12.4378C68.4198 12.4378 70.5753 13.9889 74.7767 17.1797L80.2938 10.5012L80.6829 10.2598C80.97 10.2598 83.1847 11.823 87.2646 14.9081L87.6995 15.2942L87.8937 15.6338L87.6013 16.1653L81.7468 23.2321C81.5218 23.553 81.3449 23.715 81.2152 23.715C80.9903 23.715 80.1176 23.1534 78.5522 21.9974C77.0131 20.8578 75.6943 19.7917 74.6342 18.8283L69.1658 25.4101C68.9401 25.7279 68.7617 25.8906 68.6328 25.8906ZM74.4873 13.2115C74.2624 13.2115 73.3912 12.6417 71.897 11.5179C70.4028 10.394 69.1096 9.33394 68.0517 8.36906C67.7294 8.14414 67.5659 7.94847 67.5659 7.78878L73.5636 0.239159L73.955 0C74.2121 0 76.3451 1.51442 80.2938 4.49828L80.7316 4.88589L80.9228 5.22326L80.6342 5.75705L75.0203 12.7294C74.7954 13.0488 74.6162 13.2115 74.4873 13.2115Z" fill="white"/>
</mask>
<g mask="url(#mask6_307_1741)">
<path d="M61.4207 13.1951L69.043 28.7944L81.513 16.3859L61.4207 13.1951Z" fill="#72CACD"/>
</g>
<mask id="mask7_307_1741" style="mask-type:luminance" maskUnits="userSpaceOnUse" x="61" y="0" width="27" height="26">
<path d="M68.6328 25.8906C68.4078 25.8906 67.5832 25.3538 66.1879 24.2952C64.7927 23.2366 63.4005 22.0971 62.0473 20.9065C61.7264 20.6816 61.5645 20.4852 61.5645 20.3255L61.8568 19.8899L67.8088 12.6792L68.1949 12.4378C68.4198 12.4378 70.5753 13.9889 74.7767 17.1797L80.2938 10.5012L80.6829 10.2598C80.97 10.2598 83.1847 11.823 87.2646 14.9081L87.6995 15.2942L87.8937 15.6338L87.6013 16.1653L81.7468 23.2321C81.5218 23.553 81.3449 23.715 81.2152 23.715C80.9903 23.715 80.1176 23.1534 78.5522 21.9974C77.0131 20.8578 75.6943 19.7917 74.6342 18.8283L69.1658 25.4101C68.9401 25.7279 68.7617 25.8906 68.6328 25.8906ZM74.4873 13.2115C74.2624 13.2115 73.3912 12.6417 71.897 11.5179C70.4028 10.394 69.1096 9.33394 68.0517 8.36906C67.7294 8.14414 67.5659 7.94847 67.5659 7.78878L73.5636 0.239159L73.955 0C74.2121 0 76.3451 1.51442 80.2938 4.49828L80.7316 4.88589L80.9228 5.22326L80.6342 5.75705L75.0203 12.7294C74.7954 13.0488 74.6162 13.2115 74.4873 13.2115Z" fill="white"/>
</mask>
<g mask="url(#mask7_307_1741)">
<path d="M77.4345 37.1266L69.0437 28.795L81.5114 16.3865L77.4345 37.1266Z" fill="#26B195"/>
</g>
<mask id="mask8_307_1741" style="mask-type:luminance" maskUnits="userSpaceOnUse" x="61" y="0" width="27" height="26">
<path d="M68.6328 25.8906C68.4078 25.8906 67.5832 25.3538 66.1879 24.2952C64.7927 23.2366 63.4005 22.0971 62.0473 20.9065C61.7264 20.6816 61.5645 20.4852 61.5645 20.3255L61.8568 19.8899L67.8088 12.6792L68.1949 12.4378C68.4198 12.4378 70.5753 13.9889 74.7767 17.1797L80.2938 10.5012L80.6829 10.2598C80.97 10.2598 83.1847 11.823 87.2646 14.9081L87.6995 15.2942L87.8937 15.6338L87.6013 16.1653L81.7468 23.2321C81.5218 23.553 81.3449 23.715 81.2152 23.715C80.9903 23.715 80.1176 23.1534 78.5522 21.9974C77.0131 20.8578 75.6943 19.7917 74.6342 18.8283L69.1658 25.4101C68.9401 25.7279 68.7617 25.8906 68.6328 25.8906ZM74.4873 13.2115C74.2624 13.2115 73.3912 12.6417 71.897 11.5179C70.4028 10.394 69.1096 9.33394 68.0517 8.36906C67.7294 8.14414 67.5659 7.94847 67.5659 7.78878L73.5636 0.239159L73.955 0C74.2121 0 76.3451 1.51442 80.2938 4.49828L80.7316 4.88589L80.9228 5.22326L80.6342 5.75705L75.0203 12.7294C74.7954 13.0488 74.6162 13.2115 74.4873 13.2115Z" fill="white"/>
</mask>
<g mask="url(#mask8_307_1741)">
<path d="M51.6522 25.3674L61.4202 13.1951L69.0456 28.7944L51.6522 25.3674Z" fill="#1C2E5A"/>
</g>
<mask id="mask9_307_1741" style="mask-type:luminance" maskUnits="userSpaceOnUse" x="61" y="0" width="27" height="26">
<path d="M68.6328 25.8906C68.4078 25.8906 67.5832 25.3538 66.1879 24.2952C64.7927 23.2366 63.4005 22.0971 62.0473 20.9065C61.7264 20.6816 61.5645 20.4852 61.5645 20.3255L61.8568 19.8899L67.8088 12.6792L68.1949 12.4378C68.4198 12.4378 70.5753 13.9889 74.7767 17.1797L80.2938 10.5012L80.6829 10.2598C80.97 10.2598 83.1847 11.823 87.2646 14.9081L87.6995 15.2942L87.8937 15.6338L87.6013 16.1653L81.7468 23.2321C81.5218 23.553 81.3449 23.715 81.2152 23.715C80.9903 23.715 80.1176 23.1534 78.5522 21.9974C77.0131 20.8578 75.6943 19.7917 74.6342 18.8283L69.1658 25.4101C68.9401 25.7279 68.7617 25.8906 68.6328 25.8906ZM74.4873 13.2115C74.2624 13.2115 73.3912 12.6417 71.897 11.5179C70.4028 10.394 69.1096 9.33394 68.0517 8.36906C67.7294 8.14414 67.5659 7.94847 67.5659 7.78878L73.5636 0.239159L73.955 0C74.2121 0 76.3451 1.51442 80.2938 4.49828L80.7316 4.88589L80.9228 5.22326L80.6342 5.75705L75.0203 12.7294C74.7954 13.0488 74.6162 13.2115 74.4873 13.2115Z" fill="white"/>
</mask>
<g mask="url(#mask9_307_1741)">
<path d="M57.7894 47.0532L51.6522 25.3669L69.0456 28.7946L57.7894 47.0532Z" fill="#FFD300"/>
</g>
<mask id="mask10_307_1741" style="mask-type:luminance" maskUnits="userSpaceOnUse" x="58" y="6" width="47" height="43">
<path d="M58.2341 6.38013V48.3746L104.841 47.7448V6.38013" fill="white"/>
</mask>
<g mask="url(#mask10_307_1741)">
<path d="M99.9976 17.7907C99.5177 16.4398 98.8565 15.9292 98.118 15.9292C96.2677 15.9292 93.9346 19.1425 92.7636 20.3683C90.1513 23.0968 87.2187 25.4993 84.0294 27.5235C79.1323 30.6363 72.1007 34.2012 65.8174 34.2012C64.8716 34.2052 63.9277 34.1169 62.9992 33.9373C56.2435 32.6013 53.4921 25.6252 51.6897 19.7685C52.6381 22.8528 50.7279 26.8443 51.6897 29.9713C53.0482 34.3887 54.7636 39.321 58.6216 42.1917C60.5873 43.6183 62.9689 44.3562 65.3968 44.2909C68.2843 44.1758 71.1354 43.6036 73.8438 42.5958C78.9659 40.8739 83.7505 38.2766 87.9849 34.9195C90.283 33.0481 92.4243 30.992 94.3875 28.7718C95.4626 27.5902 97.0864 26.2123 98.3227 26.2123C98.5453 26.2118 98.7648 26.2653 98.9622 26.3682C99.1596 26.4711 99.3291 26.6203 99.4563 26.8031C99.7092 27.1926 99.8373 27.65 99.8236 28.1143C99.8424 28.6518 99.8596 29.1894 99.8866 29.7262C99.9233 30.4497 99.9496 31.1791 100.019 31.9004C100.049 30.0822 100.174 28.2669 100.394 26.4619C100.597 24.6624 100.66 22.85 100.583 21.0407C100.541 19.9356 100.345 18.8418 99.9983 17.7915" fill="#1C2E5A"/>
</g>
<path d="M56.2344 4.49976V50.254H93.142V31.8111L91.2228 33.5962V48.3745H58.2354V6.38004H66.3323L67.8212 4.49976H56.2344Z" fill="#26B195"/>
<path d="M5.10405 28.7332C5.15307 29.2752 5.03564 29.8192 4.76743 30.2926C4.59183 30.4837 4.37313 30.6301 4.12953 30.7195C3.88593 30.809 3.62449 30.839 3.36697 30.8069L0 30.8242V34.8292H5.44067C5.91644 34.8472 6.39087 34.7677 6.83477 34.5956C7.27868 34.4235 7.68268 34.1623 8.02194 33.8283C8.36936 33.4515 8.63694 33.0084 8.80856 32.5254C8.98019 32.0425 9.0523 31.5299 9.02056 31.0184V15.4243H5.10405V28.7332Z" fill="#1C2E5A"/>
<path d="M18.4086 34.8643V36.072H16.4279V41.3868H15.0071V36.072H13.0354V34.8643H18.4086Z" fill="#26B195"/>
<path d="M24.7068 34.8643V41.3868H23.2824V38.5484H20.6194V41.3868H19.1949V34.8643H20.6194V37.3383H23.2861V34.8643H24.7068Z" fill="#26B195"/>
<path d="M30.8621 34.8643V36.072H27.3947V37.4605H30.575V38.5806H27.3947V40.1775H30.9273V41.3868H25.9702V34.8643H30.8621Z" fill="#26B195"/>
<path d="M38.9881 34.8643V41.3868H37.6386V39.4323C37.6386 38.3827 37.6679 37.2811 37.7263 36.1275C37.5129 36.9697 37.289 37.7302 37.0546 38.4089L36.0365 41.3868H34.9164L33.8706 38.4696C33.6054 37.7119 33.3844 36.9394 33.2086 36.156C33.263 37.433 33.2903 38.4741 33.2903 39.2793V41.3868H31.9408V34.8643H33.965L34.9397 37.6967C35.1649 38.3721 35.3457 39.0616 35.4809 39.7606C35.6252 39.0572 35.8123 38.3631 36.041 37.6824L36.9759 34.8643H38.9881Z" fill="#26B195"/>
<path d="M41.0896 41.3863H39.6232L42.1085 34.8511H43.5809L46.055 41.3848H44.5608L44.0465 39.9236H41.6174L41.0926 41.3856L41.0896 41.3863ZM42.8394 36.2905C42.733 36.6706 42.583 37.134 42.3814 37.7075L41.9608 38.8823H43.6956L43.275 37.7075C43.1048 37.2432 42.9593 36.7703 42.8394 36.2905Z" fill="#26B195"/>
<path d="M48.1007 41.3865H46.6763V34.864H49.8326C50.3288 34.8373 50.8235 34.9407 51.2675 35.1639C51.5389 35.3171 51.7622 35.5429 51.9125 35.816C52.0628 36.089 52.1341 36.3985 52.1184 36.7098C52.1353 37.1594 51.9736 37.5973 51.6686 37.9281C51.5066 38.0985 51.3068 38.2284 51.0853 38.3074C51.3644 38.3738 51.6065 38.5465 51.7601 38.7887C51.8989 39.0221 51.9856 39.2827 52.0142 39.5527C52.0292 39.6442 52.0607 39.9508 52.1072 40.4643C52.1044 40.7578 52.1702 41.0479 52.2991 41.3115L52.3584 41.3865H50.8747C50.83 41.2938 50.7973 41.1958 50.7772 41.0949C50.7555 40.9966 50.7232 40.645 50.6797 40.0453C50.6894 39.8456 50.6531 39.6465 50.5737 39.4631C50.4942 39.2797 50.3738 39.117 50.2217 38.9874C49.9608 38.8582 49.6702 38.8007 49.3797 38.821H48.1007V41.3865ZM48.1007 35.9885V37.7796H49.4502C49.7701 37.8058 50.0909 37.7417 50.3761 37.5944C50.4886 37.5133 50.5787 37.4049 50.6379 37.2794C50.697 37.1539 50.7233 37.0154 50.7142 36.877C50.7285 36.7151 50.692 36.5528 50.61 36.4126C50.5279 36.2724 50.4042 36.1611 50.2562 36.0943C50.019 36.0088 49.7672 35.9711 49.5154 35.9833L48.1007 35.9885Z" fill="#26B195"/>
<path d="M44.8907 18.8534C44.5355 18.6914 44.2069 18.4765 43.9161 18.2161C43.3553 17.7903 42.7997 17.336 42.2667 16.8667C42.1377 16.7744 42.0725 16.6995 42.0725 16.6342L42.1887 16.4603L44.5631 13.5844L44.7168 13.4877C45.6302 14.0626 46.5066 14.6944 47.3407 15.3792L49.5419 12.7155L49.6971 12.6188C50.6188 13.1668 51.4962 13.7862 52.3211 14.4713L52.4943 14.625L52.5693 14.7607L52.456 14.9751L50.1214 17.7926C50.0337 17.9185 49.9603 17.9852 49.9093 17.9852C49.5249 17.8073 49.1673 17.5764 48.8469 17.2992C48.2389 16.8494 47.7134 16.4251 47.2845 16.0352L45.1036 18.6592C45.0136 18.7882 44.9424 18.8534 44.8907 18.8534ZM47.226 13.7958C46.8511 13.6216 46.5032 13.3943 46.1929 13.1211C45.5977 12.6713 45.0819 12.2514 44.659 11.8668C44.5308 11.7768 44.4656 11.6989 44.4656 11.6352L46.8594 8.6243L47.0139 8.52759C47.8989 9.06391 48.7438 9.66375 49.5419 10.3224L49.7196 10.4768L49.7946 10.6118L49.6799 10.8247L47.4382 13.6039C47.349 13.7314 47.2778 13.7958 47.226 13.7958Z" fill="#1C2E5A"/>
<path d="M45.4381 31.3529H35.7795V31.3357H16.0733C15.0086 31.4155 13.9548 31.0769 13.1359 30.3918C12.7883 30.0116 12.5221 29.5644 12.3537 29.0775C12.1853 28.5907 12.1183 28.0746 12.1568 27.5609V11.2036H16.0553V25.8065C16.0251 26.0681 16.0575 26.333 16.1499 26.5796C16.2424 26.8261 16.3921 27.0471 16.5868 27.2242C17.0261 27.4609 17.5245 27.5651 18.0218 27.5241H22.3402V19.8823H34.5882V27.5084L36.8254 27.5249H44.1973V27.5069L46.1826 27.5249H46.4547C46.9476 27.5572 47.4424 27.5089 47.9196 27.3817C48.3897 27.1703 48.6281 26.632 48.6281 25.7863V19.958H52.5094V27.4896C52.548 28.0126 52.4799 28.5379 52.3093 29.0337C52.1386 29.5295 51.869 29.9854 51.5168 30.3738C50.693 31.0706 49.6283 31.4158 48.5524 31.3349H45.4336V31.3514L45.4381 31.3529ZM26.3106 23.7493V27.4911H26.546V27.5069H29.4879C29.5697 27.507 29.6513 27.5017 29.7323 27.4911H30.7339V23.7493H29.7338C29.6523 23.7381 29.5702 23.7326 29.4879 23.7328H26.546V23.7493H26.3106Z" fill="#1C2E5A"/>
</svg>
